
<svg fill="#e1ff7b" version="1.1" id="Capa_1" xmlns="http://www.w3.org/2000/svg" xmlns:xlink="http://www.w3.org/1999/xlink" width="256px" height="256px" viewBox="0 0 405.467 405.467" xml:space="preserve">

<g id="SVGRepo_bgCarrier" stroke-width="0"/>

<g id="SVGRepo_tracerCarrier" stroke-linecap="round" stroke-linejoin="round"/>

<g id="SVGRepo_iconCarrier"> <g> <g> <g id="Layer_5_88_"> <g> <path d="M314.438,118.187c0,5.556-4.546,10.102-10.103,10.102H47.476c-5.557,0-10.102-4.546-10.102-10.102V10.102 C37.374,4.545,41.919,0,47.476,0h256.861c5.557,0,10.103,4.544,10.103,10.102L314.438,118.187L314.438,118.187z"/> <path d="M350.247,56.054c0,0-4.93,0-11.875,0c-9.139,0-9.139,15.499,0,15.499c6.611,0,11.875,0,11.875,0 c1.297,0,2.354,1.057,2.354,2.354v89.227c0,1.296-1.057,2.353-2.354,2.353H198.064c-9.844,0-17.852,8.009-17.852,17.852 c0,0,0,60.613,0,77.322c0,8.957,15.494,9.125,15.494,0c0-16.875,0-77.322,0-77.322c0-1.296,1.059-2.353,2.357-2.353h152.184 c9.842,0,17.846-8.009,17.846-17.852V73.905C368.093,64.063,360.089,56.054,350.247,56.054z"/> <path d="M224.151,395.363c0,5.555-4.545,10.104-10.103,10.104h-50.508c-5.555,0-10.102-4.549-10.102-10.104V294.678 c0-5.556,4.547-10.102,10.102-10.102h50.508c5.558,0,10.103,4.546,10.103,10.102V395.363z"/> </g> </g> </g> </g> </g>

</svg>