<svg width="100" height="100" viewBox="0 0 100 100" fill="none" xmlns="http://www.w3.org/2000/svg">
<path d="M50 89.1775C29.1407 89.1775 12.1688 72.2034 12.1688 51.342C12.1688 30.4805 29.1407 13.5108 50 13.5108C55.9821 13.4928 61.8814 14.909 67.2035 17.6407C67.7147 17.9021 68.1011 18.356 68.2776 18.9024C68.4542 19.4487 68.4065 20.0429 68.145 20.5541C67.8835 21.0653 67.4297 21.4517 66.8833 21.6282C66.3369 21.8048 65.7428 21.7571 65.2316 21.4956C60.5195 19.0773 55.2964 17.8237 50 17.8398C31.526 17.8398 16.4978 32.8679 16.4978 51.342C16.4978 69.816 31.526 84.8484 50 84.8484C68.474 84.8484 83.5022 69.816 83.5022 51.342C83.5036 48.4618 83.1348 45.5934 82.4048 42.8073C82.2717 42.2565 82.36 41.6756 82.6506 41.1891C82.9411 40.7027 83.4108 40.3496 83.9589 40.2057C84.5069 40.0617 85.0895 40.1384 85.5816 40.4192C86.0737 40.7001 86.4361 41.1627 86.5909 41.7078C87.4148 44.8536 87.8309 48.0922 87.829 51.3441C87.8312 72.2034 70.8615 89.1775 50 89.1775Z" fill="#00BC78"/>
<path d="M48.8355 60.4676C48.2615 60.4674 47.7111 60.2393 47.3052 59.8334L36.342 48.8702C35.9728 48.4583 35.7753 47.9208 35.7899 47.3678C35.8046 46.8149 36.0304 46.2886 36.421 45.8969C36.8115 45.5053 37.3372 45.278 37.8901 45.2617C38.443 45.2455 38.9811 45.4415 39.394 45.8096L48.8269 55.2425L83.0152 21.0628C83.4234 20.6685 83.9702 20.4504 84.5377 20.4553C85.1052 20.4602 85.6481 20.6879 86.0494 21.0892C86.4507 21.4905 86.6784 22.0334 86.6833 22.6009C86.6882 23.1684 86.4701 23.7152 86.0758 24.1234L50.3615 59.8377C49.956 60.241 49.4074 60.4674 48.8355 60.4676Z" fill="#FF357D"/>
</svg>
