<!DOCTYPE svg PUBLIC "-//W3C//DTD SVG 1.1//EN" "http://www.w3.org/Graphics/SVG/1.1/DTD/svg11.dtd">
<!-- Uploaded to: SVG Repo, www.svgrepo.com, Transformed by: SVG Repo Mixer Tools -->
<svg width="256px" height="256px" viewBox="0 0 24.00 24.00" xmlns="http://www.w3.org/2000/svg" fill="#db3333" stroke="#db3333" stroke-width="0.00024000000000000003">
<g id="SVGRepo_bgCarrier" stroke-width="0"/>
<g id="SVGRepo_tracerCarrier" stroke-linecap="round" stroke-linejoin="round"/>
<g id="SVGRepo_iconCarrier">
<path d="M12 7h1v7h-1zm1.5 9.5a1 1 0 1 0-1 1 1.002 1.002 0 0 0 1-1zm9.3-4A10.3 10.3 0 1 1 12.5 2.2a10.297 10.297 0 0 1 10.3 10.3zm-1 0a9.3 9.3 0 1 0-9.3 9.3 9.31 9.31 0 0 0 9.3-9.3z"/>
<path fill="none" d="M0 0h24v24H0z"/>
</g>
</svg>